<?xml version="1.0" standalone="no"?>
<!DOCTYPE svg PUBLIC "-//W3C//DTD SVG 20010904//EN"
 "http://www.w3.org/TR/2001/REC-SVG-20010904/DTD/svg10.dtd">
<svg version="1.0" xmlns="http://www.w3.org/2000/svg"
 width="1920.000000pt" height="1920.000000pt" viewBox="0 0 1920.000000 1920.000000"
 preserveAspectRatio="xMidYMid meet">
<metadata>
Created by potrace 1.14, written by Peter Selinger 2001-2017
</metadata>
<g transform="translate(0.000000,1920.000000) scale(0.100000,-0.100000)"
fill="#000000" stroke="none">
<path d="M7412 14913 c-39 -166 -121 -620 -127 -693 -2 -30 -9 -80 -15 -110
-6 -30 -13 -97 -16 -147 -3 -51 -9 -125 -13 -165 -8 -73 -6 -433 3 -475 3 -13
1 -23 -5 -23 -23 0 4 -105 37 -137 20 -20 18 -28 -11 -43 -21 -11 -25 -21 -25
-55 0 -33 19 -80 84 -210 46 -93 82 -174 79 -181 -2 -6 -14 -14 -25 -17 -14
-4 -19 -11 -14 -22 4 -10 -22 -55 -73 -128 -63 -90 -241 -415 -241 -441 0 -3
-20 -51 -45 -105 -24 -55 -53 -134 -64 -176 -14 -54 -34 -95 -64 -138 -99
-139 -243 -455 -303 -667 -34 -118 -67 -378 -59 -459 9 -83 67 -295 100 -366
15 -30 50 -79 78 -108 54 -56 162 -123 216 -133 17 -4 31 -12 31 -19 0 -28
-26 -84 -64 -135 -83 -113 -135 -143 -250 -144 l-78 -1 -33 40 c-19 22 -37 36
-41 32 -8 -7 29 -109 52 -144 19 -30 78 -59 138 -67 61 -8 167 9 217 34 21 11
40 20 42 20 10 0 -37 -278 -68 -402 -70 -278 -96 -355 -162 -478 -56 -105
-243 -415 -418 -696 -211 -336 -300 -513 -395 -784 -5 -14 -26 -110 -46 -215
-32 -171 -36 -201 -31 -303 5 -103 4 -113 -11 -106 -36 15 -71 15 -115 0 -60
-20 -283 -132 -292 -146 -4 -6 -25 -23 -48 -37 -23 -14 -58 -39 -77 -55 -172
-139 -211 -166 -246 -173 -23 -4 -55 -21 -77 -42 -43 -39 -57 -39 -137 0 -58
28 -154 28 -265 -1 -44 -11 -169 -39 -277 -62 -267 -55 -535 -134 -921 -272
-57 -21 -83 -47 -74 -72 10 -27 206 -174 253 -191 94 -34 395 -185 531 -267
206 -123 438 -278 630 -421 l171 -128 -123 -125 c-104 -104 -272 -297 -299
-341 -6 -10 1149 -13 5761 -12 5429 0 5767 1 5743 17 -25 18 -168 142 -304
265 -44 39 -122 123 -175 187 -343 413 -592 671 -760 787 -2 2 21 29 51 61 67
70 75 85 126 237 28 85 43 150 51 225 5 58 17 134 25 170 45 202 -13 432 -156
618 -22 28 -43 52 -47 52 -3 0 -39 32 -80 72 -41 39 -115 97 -163 129 -147 96
-502 269 -737 358 -131 50 -357 148 -451 195 -201 102 -316 186 -579 426 -91
83 -236 253 -336 395 -88 124 -199 382 -325 755 -26 79 -72 281 -65 288 3 3
16 6 30 8 61 6 165 123 230 259 60 124 79 224 72 374 -24 465 -50 667 -107
826 -28 79 -55 169 -53 182 0 7 -3 11 -6 8 -17 -10 -85 168 -75 197 3 11 1 24
-4 31 -5 7 -13 48 -17 92 -10 113 -39 260 -80 400 -35 120 -136 409 -156 446
-7 13 -7 25 -1 32 5 7 13 26 16 44 4 17 14 37 22 44 8 6 14 17 14 23 1 6 9 29
20 51 11 22 19 48 20 57 0 9 4 19 9 23 5 3 13 20 17 37 3 18 10 39 14 48 9 19
31 104 37 145 2 17 8 39 13 50 5 11 11 36 14 55 3 19 12 78 20 130 14 92 44
373 51 494 3 42 0 65 -13 83 -10 17 -17 50 -18 97 -4 168 -44 565 -70 688 -8
37 -14 80 -14 96 0 42 -75 299 -109 373 -33 74 -74 131 -99 140 -23 8 -58 -9
-77 -37 -8 -12 -56 -56 -107 -97 -51 -42 -112 -95 -135 -119 -67 -69 -143
-160 -143 -171 0 -31 -419 -409 -570 -514 -14 -10 -59 -45 -100 -78 -41 -33
-87 -68 -102 -77 -24 -16 -139 -176 -150 -209 -4 -11 -22 -8 -89 14 -46 15
-142 36 -214 46 -71 11 -137 22 -145 25 -41 15 -335 36 -504 36 -220 0 -342
-12 -440 -42 l-68 -21 -47 49 c-26 27 -102 93 -169 148 -67 54 -158 133 -203
175 -44 42 -93 87 -110 99 -16 13 -36 40 -44 59 -13 31 -17 34 -31 22 -14 -12
-29 0 -122 96 -123 129 -239 268 -347 418 -42 59 -103 130 -135 157 l-58 50
-120 0 -120 0 -20 -87z m4633 -4153 c40 -160 47 -238 37 -420 -10 -180 -33
-267 -80 -298 -22 -14 -22 -14 -22 44 0 38 3 54 9 45 14 -22 18 241 9 589 -7
239 -4 242 47 40z m-5175 -80 c12 -107 30 -220 40 -250 21 -64 53 -290 48
-339 -3 -28 -8 -35 -43 -47 -87 -30 -148 -14 -175 48 -47 108 -48 205 -3 433
14 75 102 360 108 353 2 -2 13 -91 25 -198z m5294 -845 c-18 -56 -44 -98 -103
-172 -70 -89 -75 -87 -79 23 -3 92 -3 94 20 94 37 1 100 34 137 74 19 19 36
34 38 32 2 -2 -4 -25 -13 -51z m-373 -2142 c105 -240 141 -366 154 -538 6 -91
-3 -145 -26 -145 -6 0 -41 14 -78 32 -36 17 -79 34 -96 38 -17 4 -29 12 -27
19 32 146 43 256 37 384 -5 123 1 257 12 257 2 0 13 -21 24 -47z m-5337 -245
c-31 -94 -38 -134 -44 -238 -4 -69 -4 -146 1 -173 8 -47 60 -139 92 -166 14
-11 15 -16 4 -25 -45 -37 -237 -284 -237 -304 0 -11 -24 -17 -107 -25 -36 -4
-45 -1 -70 27 -40 42 -90 121 -103 162 -10 30 -8 46 20 127 35 101 103 228
182 340 98 139 292 396 296 393 2 -3 -13 -55 -34 -118z m6220 -64 c21 -15 169
-91 330 -169 160 -79 308 -157 328 -175 21 -17 57 -66 81 -108 24 -42 63 -108
85 -147 23 -38 48 -97 57 -130 20 -77 19 -178 -1 -220 -22 -48 -77 -108 -116
-129 l-35 -19 -35 38 c-32 35 -40 39 -97 43 -39 3 -90 -2 -134 -12 -40 -10
-99 -16 -132 -14 l-60 3 -6 130 c-7 141 -24 231 -68 377 -52 171 -141 379
-210 492 -23 36 -37 66 -33 66 4 0 25 -12 46 -26z m-6115 -150 c14 -31 42 -83
63 -115 21 -33 38 -63 38 -68 0 -4 -14 -26 -32 -49 -31 -40 -33 -41 -51 -24
-38 33 -67 112 -67 183 0 71 8 129 19 129 3 0 17 -26 30 -56z m6080 -354 c61
-188 82 -296 75 -387 -6 -71 -9 -82 -28 -87 -11 -3 -25 -1 -30 4 -6 6 -22 10
-36 10 -71 0 -88 59 -48 166 19 52 21 81 22 231 1 95 4 169 7 165 4 -4 20 -50
38 -102z m999 63 c75 -55 170 -139 256 -227 104 -108 306 -348 358 -427 100
-154 168 -339 168 -460 0 -65 -34 -187 -55 -195 -7 -3 -45 8 -83 25 -39 16
-92 33 -119 36 -77 11 -446 181 -499 230 -43 40 -156 207 -147 216 5 4 37 17
72 30 51 18 71 32 102 71 44 56 52 94 53 248 0 112 -17 186 -55 234 -19 24
-99 213 -99 235 0 16 7 14 48 -16z m1077 -455 c46 -54 119 -202 140 -288 23
-89 16 -180 -19 -245 -36 -68 -48 -86 -71 -107 -22 -20 -95 -61 -99 -56 -2 2
1 73 6 158 10 180 2 402 -18 510 -8 41 -14 79 -14 83 0 15 39 -13 75 -55z"/>
<path d="M12003 10720 c0 -25 2 -35 4 -22 2 12 2 32 0 45 -2 12 -4 2 -4 -23z"/>
<path d="M11991 10084 c0 -11 3 -14 6 -6 3 7 2 16 -1 19 -3 4 -6 -2 -5 -13z"/>
<path d="M12140 11170 c0 -5 5 -10 11 -10 5 0 7 5 4 10 -3 6 -8 10 -11 10 -2
0 -4 -4 -4 -10z"/>
</g>
</svg>
